<svg width="1280" height="720" xmlns="http://www.w3.org/2000/svg" xmlns:xlink="http://www.w3.org/1999/xlink" overflow="hidden"><defs><clipPath id="clip0"><rect x="0" y="0" width="1280" height="720"/></clipPath><clipPath id="clip1"><rect x="0" y="581" width="322" height="124"/></clipPath><clipPath id="clip2"><rect x="0" y="581" width="322" height="124"/></clipPath><clipPath id="clip3"><rect x="736" y="548" width="82" height="124"/></clipPath><clipPath id="clip4"><rect x="1089" y="442" width="79" height="371"/></clipPath><clipPath id="clip5"><rect x="658" y="614" width="79" height="124"/></clipPath><clipPath id="clip6"><rect x="1089" y="614" width="79" height="124"/></clipPath><clipPath id="clip7"><rect x="846" y="141" width="130" height="124"/></clipPath><clipPath id="clip8"><rect x="846" y="190" width="44" height="124"/></clipPath><clipPath id="clip9"><rect x="889" y="190" width="44" height="124"/></clipPath><clipPath id="clip10"><rect x="932" y="190" width="44" height="124"/></clipPath><clipPath id="clip11"><rect x="1024" y="190" width="44" height="124"/></clipPath><clipPath id="clip12"><rect x="1191" y="190" width="46" height="124"/></clipPath><clipPath id="clip13"><rect x="1237" y="190" width="43" height="124"/></clipPath><clipPath id="clip14"><rect x="27" y="29" width="78" height="125"/></clipPath><clipPath id="clip15"><rect x="104" y="29" width="81" height="125"/></clipPath><clipPath id="clip16"><rect x="184" y="29" width="173" height="125"/></clipPath><clipPath id="clip17"><rect x="433" y="-76" width="77" height="370"/></clipPath><clipPath id="clip18"><rect x="509" y="-76" width="78" height="370"/></clipPath><clipPath id="clip19"><rect x="27" y="96" width="78" height="124"/></clipPath><clipPath id="clip20"><rect x="356" y="96" width="78" height="124"/></clipPath><clipPath id="clip21"><rect x="433" y="96" width="77" height="124"/></clipPath><clipPath id="clip22"><rect x="509" y="96" width="78" height="124"/></clipPath></defs><g clip-path="url(#clip0)"><rect x="0" y="0" width="1280" height="720" fill="#FFFFFF"/><path d="M0 627.2 322 627.2 322 658.133 0 658.133Z" fill="#A4C2F4" fill-rule="evenodd"/><path d="M0 658.133 95 658.133 95 689.067 0 689.067Z" fill="#D9D9D9" fill-rule="evenodd"/><path d="M95 658.133 198 658.133 198 689.067 95 689.067Z" fill="#D9D9D9" fill-rule="evenodd"/><path d="M198 658.133 322 658.133 322 689.067 198 689.067Z" fill="#D9D9D9" fill-rule="evenodd"/><path d="M95 657.467 95 720.667" stroke="#000000" stroke-width="1.33333" stroke-linejoin="round" stroke-miterlimit="10" fill="none" fill-rule="evenodd"/><path d="M198 657.467 198 720.667" stroke="#000000" stroke-width="1.33333" stroke-linejoin="round" stroke-miterlimit="10" fill="none" fill-rule="evenodd"/><path d="M-0.666667 658.133 322.667 658.133" stroke="#000000" stroke-width="1.33333" stroke-linejoin="round" stroke-miterlimit="10" fill="none" fill-rule="evenodd"/><path d="M-0.666667 689.067 322.667 689.067" stroke="#000000" stroke-width="1.33333" stroke-linejoin="round" stroke-miterlimit="10" fill="none" fill-rule="evenodd"/><path d="M0 626.533 0 720.667" stroke="#000000" stroke-width="1.33333" stroke-linejoin="round" stroke-miterlimit="10" fill="none" fill-rule="evenodd"/><path d="M322 626.533 322 720.667" stroke="#000000" stroke-width="1.33333" stroke-linejoin="round" stroke-miterlimit="10" fill="none" fill-rule="evenodd"/><path d="M-0.666667 627.2 322.667 627.2" stroke="#000000" stroke-width="1.33333" stroke-linejoin="round" stroke-miterlimit="10" fill="none" fill-rule="evenodd"/><path d="M-0.666667 720 322.667 720" stroke="#000000" stroke-width="1.33333" stroke-linejoin="round" stroke-miterlimit="10" fill="none" fill-rule="evenodd"/><g clip-path="url(#clip1)"><text font-family="Arial,Arial_MSFontService,sans-serif" font-weight="700" font-size="15" transform="translate(8.66667 647)">Variance for detrended time series (to 6 </text></g><text font-family="Arial,Arial_MSFontService,sans-serif" font-weight="700" font-size="15" transform="translate(287.5 647)">s.f.</text><g clip-path="url(#clip2)"><text font-family="Arial,Arial_MSFontService,sans-serif" font-weight="700" font-size="15" transform="translate(308.5 647)">)</text></g><text font-family="Arial,Arial_MSFontService,sans-serif" font-weight="400" font-size="15" transform="translate(15.75 678)">Quadratic<tspan font-size="15" x="96.0833" y="0">Log Linear</tspan><tspan font-size="15" x="198.25" y="0">Log Quadratic</tspan><tspan font-size="15" x="1.16667" y="31">0.549884</tspan><tspan font-size="15" x="100.167" y="31">0.165457</tspan><tspan font-size="15" x="213.667" y="31">0.125768</tspan></text><path d="M658.5 563.2 1257.5 563.2 1257.5 594.133 658.5 594.133Z" fill="#A4C2F4" fill-rule="evenodd"/><path d="M658.5 594.133 736.5 594.133 736.5 660.267 658.5 660.267Z" fill="#D9D9D9" fill-rule="evenodd"/><path d="M736.5 594.133 817.5 594.133 817.5 660.267 736.5 660.267Z" fill="#D9D9D9" fill-rule="evenodd"/><path d="M817.5 594.133 1006.5 594.133 1006.5 625.067 817.5 625.067Z" fill="#D9D9D9" fill-rule="evenodd"/><path d="M1006.5 594.133 1089.5 594.133 1089.5 660.267 1006.5 660.267Z" fill="#D9D9D9" fill-rule="evenodd"/><path d="M1089.5 594.133 1167.5 594.133 1167.5 660.267 1089.5 660.267Z" fill="#D9D9D9" fill-rule="evenodd"/><path d="M1167.5 594.133 1257.5 594.133 1257.5 660.267 1167.5 660.267Z" fill="#D9D9D9" fill-rule="evenodd"/><path d="M817.5 625.067 913.5 625.067 913.5 660.267 817.5 660.267Z" fill="#D9D9D9" fill-rule="evenodd"/><path d="M913.5 625.067 1006.5 625.067 1006.5 660.267 913.5 660.267Z" fill="#D9D9D9" fill-rule="evenodd"/><path d="M736.5 593.467 736.5 691.867" stroke="#000000" stroke-width="1.33333" stroke-linejoin="round" stroke-miterlimit="10" fill="none" fill-rule="evenodd"/><path d="M817.5 593.467 817.5 691.867" stroke="#000000" stroke-width="1.33333" stroke-linejoin="round" stroke-miterlimit="10" fill="none" fill-rule="evenodd"/><path d="M913.5 624.4 913.5 691.867" stroke="#000000" stroke-width="1.33333" stroke-linejoin="round" stroke-miterlimit="10" fill="none" fill-rule="evenodd"/><path d="M1006.5 593.467 1006.5 691.867" stroke="#000000" stroke-width="1.33333" stroke-linejoin="round" stroke-miterlimit="10" fill="none" fill-rule="evenodd"/><path d="M1089.5 593.467 1089.5 691.867" stroke="#000000" stroke-width="1.33333" stroke-linejoin="round" stroke-miterlimit="10" fill="none" fill-rule="evenodd"/><path d="M1167.5 593.467 1167.5 691.867" stroke="#000000" stroke-width="1.33333" stroke-linejoin="round" stroke-miterlimit="10" fill="none" fill-rule="evenodd"/><path d="M657.833 594.133 1258.17 594.133" stroke="#000000" stroke-width="1.33333" stroke-linejoin="round" stroke-miterlimit="10" fill="none" fill-rule="evenodd"/><path d="M816.833 625.067 1007.17 625.067" stroke="#000000" stroke-width="1.33333" stroke-linejoin="round" stroke-miterlimit="10" fill="none" fill-rule="evenodd"/><path d="M657.833 660.267 1258.17 660.267" stroke="#000000" stroke-width="1.33333" stroke-linejoin="round" stroke-miterlimit="10" fill="none" fill-rule="evenodd"/><path d="M658.5 562.533 658.5 691.867" stroke="#000000" stroke-width="1.33333" stroke-linejoin="round" stroke-miterlimit="10" fill="none" fill-rule="evenodd"/><path d="M1257.5 562.533 1257.5 691.867" stroke="#000000" stroke-width="1.33333" stroke-linejoin="round" stroke-miterlimit="10" fill="none" fill-rule="evenodd"/><path d="M657.833 563.2 1258.17 563.2" stroke="#000000" stroke-width="1.33333" stroke-linejoin="round" stroke-miterlimit="10" fill="none" fill-rule="evenodd"/><path d="M657.833 691.2 1258.17 691.2" stroke="#000000" stroke-width="1.33333" stroke-linejoin="round" stroke-miterlimit="10" fill="none" fill-rule="evenodd"/><text font-family="Arial,Arial_MSFontService,sans-serif" font-weight="700" font-size="15" transform="translate(825.5 583)">Correlation system accuracy (to 6 s.f.)<tspan font-weight="400" font-size="15" x="-157.75" y="31">Standard</tspan></text><g clip-path="url(#clip3)"><text font-family="Arial,Arial_MSFontService,sans-serif" font-weight="400" font-size="15" transform="translate(744.333 614)">Negatives</text></g><text font-family="Arial,Arial_MSFontService,sans-serif" font-weight="400" font-size="15" transform="translate(834.583 614)">Rotated training images<tspan font-size="15" x="195" y="0">Noisy </tspan><tspan font-size="15" x="189.333" y="18">training </tspan><tspan font-size="15" x="189.753" y="35">images</tspan></text><g clip-path="url(#clip4)"><text font-family="Arial,Arial_MSFontService,sans-serif" font-weight="400" font-size="15" transform="translate(1097.5 614)">Gaussian </text></g><text font-family="Arial,Arial_MSFontService,sans-serif" font-weight="400" font-size="15" transform="translate(1106.5 632)">filtered <tspan font-size="15" x="-1.66663" y="17">images</tspan><tspan font-size="15" x="74.5834" y="-18">Averaged </tspan><tspan font-size="15" x="81.9166" y="0">training </tspan><tspan font-size="15" x="88.8367" y="17">digits</tspan><tspan font-size="15" x="-252.083" y="13">10</tspan><tspan font-size="15" x="-235.75" y="13">째</tspan><tspan font-size="15" x="-160" y="13">-</tspan><tspan font-size="15" x="-155.167" y="13">10</tspan><tspan font-size="15" x="-138.833" y="13">째</tspan></text><g clip-path="url(#clip5)"><text font-family="Arial,Arial_MSFontService,sans-serif" font-weight="400" font-size="15" transform="translate(666.917 680)">0.901379</text></g><text font-family="Arial,Arial_MSFontService,sans-serif" font-weight="400" font-size="15" transform="translate(746.417 680)">0.908802<tspan font-size="15" x="88.5" y="0">0.765642</tspan><tspan font-size="15" x="183" y="0">0.827147</tspan><tspan font-size="15" x="271" y="0">0.902439</tspan></text><g clip-path="url(#clip6)"><text font-family="Arial,Arial_MSFontService,sans-serif" font-weight="400" font-size="15" transform="translate(1097.92 680)">0.786850</text></g><text font-family="Arial,Arial_MSFontService,sans-serif" font-weight="400" font-size="15" transform="translate(1181.92 680)">0.873807</text><path d="M846.369 139.146 1280 139.146 1280 187.679 846.369 187.679Z" fill="#C9DAF8" fill-rule="evenodd"/><path d="M846.369 187.679 975.369 187.679 975.369 236.212 846.369 236.212Z" fill="#CCCCCC" fill-rule="evenodd"/><path d="M975.369 187.679 1067.37 187.679 1067.37 236.212 975.369 236.212Z" fill="#CCCCCC" fill-rule="evenodd"/><path d="M1067.37 187.679 1191 187.679 1191 236.212 1067.37 236.212Z" fill="#CCCCCC" fill-rule="evenodd"/><path d="M1191 187.679 1280 187.679 1280 236.212 1191 236.212Z" fill="#CCCCCC" fill-rule="evenodd"/><path d="M889.369 235.546 889.369 267.812" stroke="#000000" stroke-width="1.33333" stroke-linejoin="round" stroke-miterlimit="10" fill="none" fill-rule="evenodd"/><path d="M932.369 235.546 932.369 267.812" stroke="#000000" stroke-width="1.33333" stroke-linejoin="round" stroke-miterlimit="10" fill="none" fill-rule="evenodd"/><path d="M975.369 187.012 975.369 267.812" stroke="#000000" stroke-width="1.33333" stroke-linejoin="round" stroke-miterlimit="10" fill="none" fill-rule="evenodd"/><path d="M1024.37 235.546 1024.37 267.812" stroke="#000000" stroke-width="1.33333" stroke-linejoin="round" stroke-miterlimit="10" fill="none" fill-rule="evenodd"/><path d="M1067.37 187.012 1067.37 267.812" stroke="#000000" stroke-width="1.33333" stroke-linejoin="round" stroke-miterlimit="10" fill="none" fill-rule="evenodd"/><path d="M1191 187.012 1191 267.812" stroke="#000000" stroke-width="1.33333" stroke-linejoin="round" stroke-miterlimit="10" fill="none" fill-rule="evenodd"/><path d="M1237 235.546 1237 267.812" stroke="#000000" stroke-width="1.33333" stroke-linejoin="round" stroke-miterlimit="10" fill="none" fill-rule="evenodd"/><path d="M845.702 187.679 1280.67 187.679" stroke="#000000" stroke-width="1.33333" stroke-linejoin="round" stroke-miterlimit="10" fill="none" fill-rule="evenodd"/><path d="M845.702 236.212 1280.67 236.212" stroke="#000000" stroke-width="1.33333" stroke-linejoin="round" stroke-miterlimit="10" fill="none" fill-rule="evenodd"/><path d="M846.369 138.479 846.369 267.812" stroke="#000000" stroke-width="1.33333" stroke-linejoin="round" stroke-miterlimit="10" fill="none" fill-rule="evenodd"/><path d="M1280 138.479 1280 267.812" stroke="#000000" stroke-width="1.33333" stroke-linejoin="round" stroke-miterlimit="10" fill="none" fill-rule="evenodd"/><path d="M845.702 139.146 1280.67 139.146" stroke="#000000" stroke-width="1.33333" stroke-linejoin="round" stroke-miterlimit="10" fill="none" fill-rule="evenodd"/><path d="M845.702 267.146 1280.67 267.146" stroke="#000000" stroke-width="1.33333" stroke-linejoin="round" stroke-miterlimit="10" fill="none" fill-rule="evenodd"/><text font-family="Arial,Arial_MSFontService,sans-serif" font-weight="700" font-size="15" transform="translate(873.434 159)">Micro<tspan font-size="15" x="39" y="0">-</tspan><tspan font-size="15" x="43.8333" y="0">periodicity estimates within approximate macro</tspan>-<tspan font-size="15" x="109.747" y="18">periods (years to 3 s.f.)</tspan></text><g clip-path="url(#clip7)"><text font-family="Arial,Arial_MSFontService,sans-serif" font-weight="400" font-size="15" transform="translate(853.036 207)">Period 1: 01/1881</text></g><text font-family="Arial,Arial_MSFontService,sans-serif" font-weight="400" font-size="15" transform="translate(992.036 207)">Period 2: <tspan font-size="15" x="2.83331" y="18">07/1917</tspan><tspan font-size="15" x="107.815" y="0">Period 3: </tspan><tspan font-size="15" x="110.649" y="18">01/1954</tspan><tspan font-size="15" x="214.131" y="0">Period 4: </tspan><tspan font-size="15" x="216.964" y="18">07/1990</tspan></text><g clip-path="url(#clip8)"><text font-family="Arial,Arial_MSFontService,sans-serif" font-weight="400" font-size="15" transform="translate(853.619 256)">3.32</text></g><g clip-path="url(#clip9)"><text font-family="Arial,Arial_MSFontService,sans-serif" font-weight="400" font-size="15" transform="translate(896.619 256)">4.56</text></g><g clip-path="url(#clip10)"><text font-family="Arial,Arial_MSFontService,sans-serif" font-weight="400" font-size="15" transform="translate(939.619 256)">6.08</text></g><text font-family="Arial,Arial_MSFontService,sans-serif" font-weight="400" font-size="15" transform="translate(985.619 256)">3.65</text><g clip-path="url(#clip11)"><text font-family="Arial,Arial_MSFontService,sans-serif" font-weight="400" font-size="15" transform="translate(1031.62 256)">9.13</text></g><text font-family="Arial,Arial_MSFontService,sans-serif" font-weight="400" font-size="15" transform="translate(1114.93 256)">4.06</text><g clip-path="url(#clip12)"><text font-family="Arial,Arial_MSFontService,sans-serif" font-weight="400" font-size="15" transform="translate(1199.75 256)">2.05</text></g><g clip-path="url(#clip13)"><text font-family="Arial,Arial_MSFontService,sans-serif" font-weight="400" font-size="15" transform="translate(1244.25 256)">3.81</text></g><path d="M27.5826 45.1844 586.583 45.1844 586.583 76.1177 27.5826 76.1177Z" fill="#A4C2F4" fill-rule="evenodd"/><path d="M27.5826 76.1177 104.583 76.1177 104.583 142.251 27.5826 142.251Z" fill="#D9D9D9" fill-rule="evenodd"/><path d="M104.583 76.1177 184.583 76.1177 184.583 142.251 104.583 142.251Z" fill="#D9D9D9" fill-rule="evenodd"/><path d="M184.583 76.1177 356.583 76.1177 356.583 107.051 184.583 107.051Z" fill="#D9D9D9" fill-rule="evenodd"/><path d="M356.583 76.1177 433.583 76.1177 433.583 142.251 356.583 142.251Z" fill="#D9D9D9" fill-rule="evenodd"/><path d="M433.583 76.1177 509.583 76.1177 509.583 142.251 433.583 142.251Z" fill="#D9D9D9" fill-rule="evenodd"/><path d="M509.583 76.1177 586.583 76.1177 586.583 142.251 509.583 142.251Z" fill="#D9D9D9" fill-rule="evenodd"/><path d="M184.583 107.051 268.583 107.051 268.583 142.251 184.583 142.251Z" fill="#D9D9D9" fill-rule="evenodd"/><path d="M268.583 107.051 356.583 107.051 356.583 142.251 268.583 142.251Z" fill="#D9D9D9" fill-rule="evenodd"/><path d="M104.583 75.451 104.583 173.851" stroke="#000000" stroke-width="1.33333" stroke-linejoin="round" stroke-miterlimit="10" fill="none" fill-rule="evenodd"/><path d="M184.583 75.451 184.583 173.851" stroke="#000000" stroke-width="1.33333" stroke-linejoin="round" stroke-miterlimit="10" fill="none" fill-rule="evenodd"/><path d="M268.583 106.384 268.583 173.851" stroke="#000000" stroke-width="1.33333" stroke-linejoin="round" stroke-miterlimit="10" fill="none" fill-rule="evenodd"/><path d="M356.583 75.451 356.583 173.851" stroke="#000000" stroke-width="1.33333" stroke-linejoin="round" stroke-miterlimit="10" fill="none" fill-rule="evenodd"/><path d="M433.583 75.451 433.583 173.851" stroke="#000000" stroke-width="1.33333" stroke-linejoin="round" stroke-miterlimit="10" fill="none" fill-rule="evenodd"/><path d="M509.583 75.451 509.583 173.851" stroke="#000000" stroke-width="1.33333" stroke-linejoin="round" stroke-miterlimit="10" fill="none" fill-rule="evenodd"/><path d="M26.9159 76.1177 587.249 76.1177" stroke="#000000" stroke-width="1.33333" stroke-linejoin="round" stroke-miterlimit="10" fill="none" fill-rule="evenodd"/><path d="M183.916 107.051 357.249 107.051" stroke="#000000" stroke-width="1.33333" stroke-linejoin="round" stroke-miterlimit="10" fill="none" fill-rule="evenodd"/><path d="M26.9159 142.251 587.249 142.251" stroke="#000000" stroke-width="1.33333" stroke-linejoin="round" stroke-miterlimit="10" fill="none" fill-rule="evenodd"/><path d="M27.5826 44.5177 27.5826 173.851" stroke="#000000" stroke-width="1.33333" stroke-linejoin="round" stroke-miterlimit="10" fill="none" fill-rule="evenodd"/><path d="M586.583 44.5177 586.583 173.851" stroke="#000000" stroke-width="1.33333" stroke-linejoin="round" stroke-miterlimit="10" fill="none" fill-rule="evenodd"/><path d="M26.9159 45.1844 587.249 45.1844" stroke="#000000" stroke-width="1.33333" stroke-linejoin="round" stroke-miterlimit="10" fill="none" fill-rule="evenodd"/><path d="M26.9159 173.184 587.249 173.184" stroke="#000000" stroke-width="1.33333" stroke-linejoin="round" stroke-miterlimit="10" fill="none" fill-rule="evenodd"/><text font-family="Arial,Arial_MSFontService,sans-serif" font-weight="700" font-size="15" transform="translate(152.583 65)">Cross<tspan font-size="15" x="41.6667" y="0">-</tspan><tspan font-size="15" x="46.5" y="0">correlation system accuracy (to 6 </tspan><tspan font-size="15" x="283.167" y="0">s.f.</tspan>)</text><g clip-path="url(#clip14)"><text font-family="Arial,Arial_MSFontService,sans-serif" font-weight="400" font-size="15" transform="translate(36.3325 96)">Standard</text></g><g clip-path="url(#clip15)"><text font-family="Arial,Arial_MSFontService,sans-serif" font-weight="400" font-size="15" transform="translate(111.916 96)">Negatives</text></g><g clip-path="url(#clip16)"><text font-family="Arial,Arial_MSFontService,sans-serif" font-weight="400" font-size="15" transform="translate(193.166 96)">Rotated training images</text></g><text font-family="Arial,Arial_MSFontService,sans-serif" font-weight="400" font-size="15" transform="translate(376.666 96)">Noisy <tspan font-size="15" x="-5.66669" y="18">training </tspan><tspan font-size="15" x="-5.24667" y="35">images</tspan></text><g clip-path="url(#clip17)"><text font-family="Arial,Arial_MSFontService,sans-serif" font-weight="400" font-size="15" transform="translate(440.583 96)">Gaussian </text></g><text font-family="Arial,Arial_MSFontService,sans-serif" font-weight="400" font-size="15" transform="translate(449.583 114)">filtered <tspan font-size="15" x="-1.66669" y="17">images</tspan></text><g clip-path="url(#clip18)"><text font-family="Arial,Arial_MSFontService,sans-serif" font-weight="400" font-size="15" transform="translate(516.666 96)">Averaged </text></g><text font-family="Arial,Arial_MSFontService,sans-serif" font-weight="400" font-size="15" transform="translate(523.999 114)">training <tspan font-size="15" x="6.91998" y="17">digits</tspan><tspan font-size="15" x="-308.5" y="13">10</tspan>째<tspan font-size="15" x="-224.917" y="13">-</tspan><tspan font-size="15" x="-220.083" y="13">10</tspan><tspan font-size="15" x="-203.75" y="13">째</tspan></text><g clip-path="url(#clip19)"><text font-family="Arial,Arial_MSFontService,sans-serif" font-weight="400" font-size="15" transform="translate(35.4992 162)">0.917285</text></g><text font-family="Arial,Arial_MSFontService,sans-serif" font-weight="400" font-size="15" transform="translate(113.999 162)">0.908802<tspan font-size="15" x="82" y="0">0.761310</tspan><tspan font-size="15" x="168" y="0">0.839873</tspan></text><g clip-path="url(#clip20)"><text font-family="Arial,Arial_MSFontService,sans-serif" font-weight="400" font-size="15" transform="translate(364.499 162)">0.915164</text></g><g clip-path="url(#clip21)"><text font-family="Arial,Arial_MSFontService,sans-serif" font-weight="400" font-size="15" transform="translate(440.999 162)">0.772004</text></g><g clip-path="url(#clip22)"><text font-family="Arial,Arial_MSFontService,sans-serif" font-weight="400" font-size="15" transform="translate(517.499 162)">0.887593</text></g></g></svg>